<mxfile host="app.diagrams.net" modified="2023-10-18T16:10:47.784Z" agent="Mozilla/5.0 (Windows NT 10.0; Win64; x64) AppleWebKit/537.36 (KHTML, like Gecko) Chrome/118.0.0.0 Safari/537.36" etag="Oa1xcFud0iK2dix6lfkL" version="22.0.4" type="github">
  <diagram name="Halaman-1" id="zOYTx9dQUhLirU9sEfAO">
    <mxGraphModel dx="3474" dy="1520" grid="1" gridSize="10" guides="1" tooltips="1" connect="1" arrows="1" fold="1" page="1" pageScale="1" pageWidth="827" pageHeight="1169" math="0" shadow="0">
      <root>
        <mxCell id="0" />
        <mxCell id="1" parent="0" />
        <mxCell id="TS94H9t_8uxHyaIbQ6bf-14" style="edgeStyle=orthogonalEdgeStyle;rounded=0;orthogonalLoop=1;jettySize=auto;html=1;strokeWidth=3;" parent="1" source="TS94H9t_8uxHyaIbQ6bf-13" target="TS94H9t_8uxHyaIbQ6bf-15" edge="1">
          <mxGeometry relative="1" as="geometry">
            <mxPoint x="420" y="200" as="targetPoint" />
          </mxGeometry>
        </mxCell>
        <mxCell id="TS94H9t_8uxHyaIbQ6bf-13" value="&lt;font style=&quot;font-size: 22px;&quot;&gt;&lt;b&gt;START&lt;/b&gt;&lt;/font&gt;" style="rounded=1;whiteSpace=wrap;html=1;arcSize=50;strokeWidth=3;" parent="1" vertex="1">
          <mxGeometry x="270" y="40" width="300" height="65" as="geometry" />
        </mxCell>
        <mxCell id="TS94H9t_8uxHyaIbQ6bf-20" value="" style="edgeStyle=orthogonalEdgeStyle;rounded=0;orthogonalLoop=1;jettySize=auto;html=1;strokeWidth=3;" parent="1" source="TS94H9t_8uxHyaIbQ6bf-15" target="TS94H9t_8uxHyaIbQ6bf-19" edge="1">
          <mxGeometry relative="1" as="geometry" />
        </mxCell>
        <mxCell id="TS94H9t_8uxHyaIbQ6bf-15" value="&lt;font style=&quot;font-size: 22px;&quot;&gt;&lt;b&gt;Program Tebak Angka&lt;/b&gt;&lt;/font&gt;" style="shape=parallelogram;perimeter=parallelogramPerimeter;whiteSpace=wrap;html=1;fixedSize=1;strokeWidth=3;" parent="1" vertex="1">
          <mxGeometry x="280" y="180" width="280" height="60" as="geometry" />
        </mxCell>
        <mxCell id="TS94H9t_8uxHyaIbQ6bf-23" value="" style="edgeStyle=orthogonalEdgeStyle;rounded=0;orthogonalLoop=1;jettySize=auto;html=1;strokeWidth=3;" parent="1" source="TS94H9t_8uxHyaIbQ6bf-19" target="TS94H9t_8uxHyaIbQ6bf-22" edge="1">
          <mxGeometry relative="1" as="geometry" />
        </mxCell>
        <mxCell id="TS94H9t_8uxHyaIbQ6bf-19" value="&lt;font style=&quot;font-size: 22px;&quot;&gt;&lt;b&gt;Input Angka Tebakan&lt;/b&gt;&lt;/font&gt;" style="shape=parallelogram;perimeter=parallelogramPerimeter;whiteSpace=wrap;html=1;fixedSize=1;strokeWidth=3;" parent="1" vertex="1">
          <mxGeometry x="280" y="320" width="280" height="60" as="geometry" />
        </mxCell>
        <mxCell id="TS94H9t_8uxHyaIbQ6bf-27" value="" style="edgeStyle=orthogonalEdgeStyle;rounded=0;orthogonalLoop=1;jettySize=auto;html=1;strokeWidth=3;" parent="1" source="TS94H9t_8uxHyaIbQ6bf-22" target="TS94H9t_8uxHyaIbQ6bf-26" edge="1">
          <mxGeometry relative="1" as="geometry" />
        </mxCell>
        <mxCell id="TS94H9t_8uxHyaIbQ6bf-61" value="" style="edgeStyle=orthogonalEdgeStyle;rounded=0;orthogonalLoop=1;jettySize=auto;html=1;strokeWidth=3;" parent="1" source="TS94H9t_8uxHyaIbQ6bf-22" target="TS94H9t_8uxHyaIbQ6bf-19" edge="1">
          <mxGeometry relative="1" as="geometry" />
        </mxCell>
        <mxCell id="TS94H9t_8uxHyaIbQ6bf-22" value="&lt;font style=&quot;font-size: 20px;&quot;&gt;&lt;b&gt;jawaban==and()%&lt;br&gt;BATAS_ATAS+BATAS_BAWAH&lt;/b&gt;&lt;/font&gt;" style="whiteSpace=wrap;html=1;strokeWidth=3;align=left;" parent="1" vertex="1">
          <mxGeometry x="270" y="440" width="300" height="100" as="geometry" />
        </mxCell>
        <mxCell id="TS94H9t_8uxHyaIbQ6bf-31" value="" style="edgeStyle=orthogonalEdgeStyle;rounded=0;orthogonalLoop=1;jettySize=auto;html=1;strokeWidth=3;" parent="1" source="TS94H9t_8uxHyaIbQ6bf-26" target="TS94H9t_8uxHyaIbQ6bf-30" edge="1">
          <mxGeometry relative="1" as="geometry" />
        </mxCell>
        <mxCell id="TS94H9t_8uxHyaIbQ6bf-33" value="" style="edgeStyle=orthogonalEdgeStyle;rounded=0;orthogonalLoop=1;jettySize=auto;html=1;strokeWidth=3;" parent="1" source="TS94H9t_8uxHyaIbQ6bf-26" target="TS94H9t_8uxHyaIbQ6bf-32" edge="1">
          <mxGeometry relative="1" as="geometry" />
        </mxCell>
        <mxCell id="TS94H9t_8uxHyaIbQ6bf-26" value="&lt;font style=&quot;font-size: 22px;&quot;&gt;&lt;b&gt;&lt;font style=&quot;font-size: 22px;&quot;&gt;jawaban&lt;/font&gt;&lt;br&gt;==tebakan&lt;/b&gt;&lt;/font&gt;" style="rhombus;whiteSpace=wrap;html=1;strokeWidth=3;" parent="1" vertex="1">
          <mxGeometry x="310" y="606" width="220" height="210" as="geometry" />
        </mxCell>
        <mxCell id="TS94H9t_8uxHyaIbQ6bf-30" value="&lt;b style=&quot;border-color: var(--border-color); font-size: 22px;&quot;&gt;Tebakan anda salah&lt;/b&gt;" style="shape=parallelogram;perimeter=parallelogramPerimeter;whiteSpace=wrap;html=1;fixedSize=1;strokeWidth=3;" parent="1" vertex="1">
          <mxGeometry x="590" y="681" width="280" height="60" as="geometry" />
        </mxCell>
        <mxCell id="TS94H9t_8uxHyaIbQ6bf-35" value="" style="edgeStyle=orthogonalEdgeStyle;rounded=0;orthogonalLoop=1;jettySize=auto;html=1;strokeWidth=3;" parent="1" source="TS94H9t_8uxHyaIbQ6bf-32" target="TS94H9t_8uxHyaIbQ6bf-34" edge="1">
          <mxGeometry relative="1" as="geometry" />
        </mxCell>
        <mxCell id="TS94H9t_8uxHyaIbQ6bf-32" value="&lt;font style=&quot;font-size: 22px;&quot;&gt;&lt;b&gt;Tebakan anda salah&lt;/b&gt;&lt;/font&gt;" style="shape=parallelogram;perimeter=parallelogramPerimeter;whiteSpace=wrap;html=1;fixedSize=1;strokeWidth=3;" parent="1" vertex="1">
          <mxGeometry x="280" y="910" width="280" height="60" as="geometry" />
        </mxCell>
        <mxCell id="TS94H9t_8uxHyaIbQ6bf-37" value="" style="edgeStyle=orthogonalEdgeStyle;rounded=0;orthogonalLoop=1;jettySize=auto;html=1;strokeWidth=3;" parent="1" source="TS94H9t_8uxHyaIbQ6bf-34" target="TS94H9t_8uxHyaIbQ6bf-36" edge="1">
          <mxGeometry relative="1" as="geometry" />
        </mxCell>
        <mxCell id="TS94H9t_8uxHyaIbQ6bf-48" value="" style="edgeStyle=orthogonalEdgeStyle;rounded=0;orthogonalLoop=1;jettySize=auto;html=1;strokeWidth=3;" parent="1" source="TS94H9t_8uxHyaIbQ6bf-34" target="TS94H9t_8uxHyaIbQ6bf-47" edge="1">
          <mxGeometry relative="1" as="geometry" />
        </mxCell>
        <mxCell id="TS94H9t_8uxHyaIbQ6bf-49" value="" style="edgeStyle=orthogonalEdgeStyle;rounded=0;orthogonalLoop=1;jettySize=auto;html=1;strokeWidth=3;" parent="1" source="TS94H9t_8uxHyaIbQ6bf-34" target="TS94H9t_8uxHyaIbQ6bf-47" edge="1">
          <mxGeometry relative="1" as="geometry" />
        </mxCell>
        <mxCell id="TS94H9t_8uxHyaIbQ6bf-34" value="&lt;b style=&quot;border-color: var(--border-color);&quot;&gt;&lt;font style=&quot;font-size: 22px; border-color: var(--border-color);&quot;&gt;jawaban&lt;/font&gt;&lt;br style=&quot;border-color: var(--border-color);&quot;&gt;&lt;span style=&quot;font-size: 18.3333px;&quot;&gt;&lt;sup&gt;&amp;gt;&lt;/sup&gt;&lt;/span&gt;&lt;/b&gt;&lt;b style=&quot;border-color: var(--border-color); font-size: 22px;&quot;&gt;tebakan&lt;/b&gt;" style="rhombus;whiteSpace=wrap;html=1;strokeWidth=3;" parent="1" vertex="1">
          <mxGeometry x="310" y="1060" width="220" height="210" as="geometry" />
        </mxCell>
        <mxCell id="TS94H9t_8uxHyaIbQ6bf-39" value="" style="edgeStyle=orthogonalEdgeStyle;rounded=0;orthogonalLoop=1;jettySize=auto;html=1;strokeWidth=3;" parent="1" source="TS94H9t_8uxHyaIbQ6bf-36" target="TS94H9t_8uxHyaIbQ6bf-38" edge="1">
          <mxGeometry relative="1" as="geometry" />
        </mxCell>
        <mxCell id="TS94H9t_8uxHyaIbQ6bf-59" style="edgeStyle=orthogonalEdgeStyle;rounded=0;orthogonalLoop=1;jettySize=auto;html=1;exitX=0;exitY=0.5;exitDx=0;exitDy=0;entryX=0.5;entryY=1;entryDx=0;entryDy=0;strokeWidth=3;" parent="1" source="TS94H9t_8uxHyaIbQ6bf-36" target="TS94H9t_8uxHyaIbQ6bf-51" edge="1">
          <mxGeometry relative="1" as="geometry" />
        </mxCell>
        <mxCell id="TS94H9t_8uxHyaIbQ6bf-36" value="&lt;b style=&quot;border-color: var(--border-color);&quot;&gt;&lt;font style=&quot;border-color: var(--border-color); font-size: 22px;&quot;&gt;jawaban&lt;/font&gt;&lt;br style=&quot;border-color: var(--border-color);&quot;&gt;&lt;/b&gt;&lt;b style=&quot;border-color: var(--border-color); font-size: 10px;&quot;&gt;&amp;lt;&lt;/b&gt;&lt;b style=&quot;border-color: var(--border-color); font-size: 22px;&quot;&gt;tebakan&lt;/b&gt;" style="rhombus;whiteSpace=wrap;html=1;strokeWidth=3;" parent="1" vertex="1">
          <mxGeometry x="310" y="1350" width="220" height="210" as="geometry" />
        </mxCell>
        <mxCell id="TS94H9t_8uxHyaIbQ6bf-41" value="" style="edgeStyle=orthogonalEdgeStyle;rounded=0;orthogonalLoop=1;jettySize=auto;html=1;strokeWidth=3;" parent="1" source="TS94H9t_8uxHyaIbQ6bf-38" target="TS94H9t_8uxHyaIbQ6bf-40" edge="1">
          <mxGeometry relative="1" as="geometry" />
        </mxCell>
        <mxCell id="TS94H9t_8uxHyaIbQ6bf-38" value="&lt;font style=&quot;font-size: 22px;&quot;&gt;&lt;b&gt;countNum==4&lt;/b&gt;&lt;/font&gt;" style="whiteSpace=wrap;html=1;strokeWidth=3;" parent="1" vertex="1">
          <mxGeometry x="270" y="1640" width="300" height="100" as="geometry" />
        </mxCell>
        <mxCell id="TS94H9t_8uxHyaIbQ6bf-40" value="" style="shape=parallelogram;perimeter=parallelogramPerimeter;whiteSpace=wrap;html=1;fixedSize=1;strokeWidth=3;" parent="1" vertex="1">
          <mxGeometry x="280" y="1810" width="280" height="70" as="geometry" />
        </mxCell>
        <mxCell id="TS94H9t_8uxHyaIbQ6bf-45" value="" style="edgeStyle=orthogonalEdgeStyle;rounded=0;orthogonalLoop=1;jettySize=auto;html=1;strokeWidth=3;" parent="1" source="TS94H9t_8uxHyaIbQ6bf-42" target="TS94H9t_8uxHyaIbQ6bf-44" edge="1">
          <mxGeometry relative="1" as="geometry" />
        </mxCell>
        <mxCell id="TS94H9t_8uxHyaIbQ6bf-46" value="" style="edgeStyle=orthogonalEdgeStyle;rounded=0;orthogonalLoop=1;jettySize=auto;html=1;strokeWidth=3;" parent="1" source="TS94H9t_8uxHyaIbQ6bf-42" target="TS94H9t_8uxHyaIbQ6bf-38" edge="1">
          <mxGeometry relative="1" as="geometry" />
        </mxCell>
        <mxCell id="TS94H9t_8uxHyaIbQ6bf-42" value="&lt;font style=&quot;font-size: 22px;&quot;&gt;&lt;b&gt;print jawaban benar&lt;/b&gt;&lt;/font&gt;" style="shape=parallelogram;perimeter=parallelogramPerimeter;whiteSpace=wrap;html=1;fixedSize=1;strokeWidth=3;" parent="1" vertex="1">
          <mxGeometry x="280" y="1810" width="280" height="70" as="geometry" />
        </mxCell>
        <mxCell id="TS94H9t_8uxHyaIbQ6bf-44" value="&lt;font style=&quot;font-size: 22px;&quot;&gt;&lt;b&gt;END&lt;/b&gt;&lt;/font&gt;" style="rounded=1;whiteSpace=wrap;html=1;arcSize=50;imageWidth=24;gradientColor=none;strokeWidth=3;" parent="1" vertex="1">
          <mxGeometry x="270" y="1965" width="300" height="65" as="geometry" />
        </mxCell>
        <mxCell id="TS94H9t_8uxHyaIbQ6bf-63" style="edgeStyle=orthogonalEdgeStyle;rounded=0;orthogonalLoop=1;jettySize=auto;html=1;strokeWidth=3;" parent="1" source="TS94H9t_8uxHyaIbQ6bf-47" edge="1">
          <mxGeometry relative="1" as="geometry">
            <mxPoint x="420" y="410" as="targetPoint" />
            <Array as="points">
              <mxPoint x="920" y="1165" />
            </Array>
          </mxGeometry>
        </mxCell>
        <mxCell id="TS94H9t_8uxHyaIbQ6bf-47" value="&lt;b style=&quot;border-color: var(--border-color); font-size: 22px;&quot;&gt;Tebakan anda&amp;nbsp; terlalu&lt;br&gt;kecil&lt;/b&gt;" style="shape=parallelogram;perimeter=parallelogramPerimeter;whiteSpace=wrap;html=1;fixedSize=1;strokeWidth=3;align=center;" parent="1" vertex="1">
          <mxGeometry x="590" y="1135" width="280" height="60" as="geometry" />
        </mxCell>
        <mxCell id="TS94H9t_8uxHyaIbQ6bf-60" style="edgeStyle=orthogonalEdgeStyle;rounded=0;orthogonalLoop=1;jettySize=auto;html=1;strokeWidth=3;" parent="1" source="TS94H9t_8uxHyaIbQ6bf-51" edge="1">
          <mxGeometry relative="1" as="geometry">
            <mxPoint x="420" y="410" as="targetPoint" />
            <Array as="points">
              <mxPoint x="110" y="480" />
              <mxPoint x="111" y="412" />
            </Array>
          </mxGeometry>
        </mxCell>
        <mxCell id="TS94H9t_8uxHyaIbQ6bf-51" value="&lt;b style=&quot;border-color: var(--border-color); font-size: 22px;&quot;&gt;Tebakan anda&amp;nbsp; terlalu&lt;br style=&quot;border-color: var(--border-color);&quot;&gt;besar&lt;br&gt;&lt;/b&gt;" style="shape=parallelogram;perimeter=parallelogramPerimeter;whiteSpace=wrap;html=1;fixedSize=1;strokeWidth=3;" parent="1" vertex="1">
          <mxGeometry x="-30" y="1135" width="280" height="60" as="geometry" />
        </mxCell>
        <mxCell id="TS94H9t_8uxHyaIbQ6bf-64" value="&lt;b&gt;&lt;font style=&quot;font-size: 22px;&quot;&gt;True&lt;/font&gt;&lt;/b&gt;" style="text;html=1;strokeColor=none;fillColor=none;align=center;verticalAlign=middle;whiteSpace=wrap;rounded=0;" parent="1" vertex="1">
          <mxGeometry x="530" y="681" width="60" height="30" as="geometry" />
        </mxCell>
        <mxCell id="TS94H9t_8uxHyaIbQ6bf-66" value="&lt;b style=&quot;font-size: 22px;&quot;&gt;False&lt;/b&gt;" style="text;html=1;strokeColor=none;fillColor=none;align=center;verticalAlign=middle;whiteSpace=wrap;rounded=0;fontSize=22;" parent="1" vertex="1">
          <mxGeometry x="425" y="840" width="60" height="30" as="geometry" />
        </mxCell>
        <mxCell id="TS94H9t_8uxHyaIbQ6bf-67" value="&lt;b&gt;&lt;font style=&quot;font-size: 22px;&quot;&gt;True&lt;/font&gt;&lt;/b&gt;" style="text;html=1;strokeColor=none;fillColor=none;align=center;verticalAlign=middle;whiteSpace=wrap;rounded=0;" parent="1" vertex="1">
          <mxGeometry x="530" y="1130" width="60" height="30" as="geometry" />
        </mxCell>
        <mxCell id="TS94H9t_8uxHyaIbQ6bf-68" value="&lt;b style=&quot;font-size: 22px;&quot;&gt;False&lt;/b&gt;" style="text;html=1;strokeColor=none;fillColor=none;align=center;verticalAlign=middle;whiteSpace=wrap;rounded=0;fontSize=22;" parent="1" vertex="1">
          <mxGeometry x="425" y="1290" width="60" height="30" as="geometry" />
        </mxCell>
        <mxCell id="TS94H9t_8uxHyaIbQ6bf-69" value="&lt;b&gt;&lt;font style=&quot;font-size: 22px;&quot;&gt;True&lt;/font&gt;&lt;/b&gt;" style="text;html=1;strokeColor=none;fillColor=none;align=center;verticalAlign=middle;whiteSpace=wrap;rounded=0;" parent="1" vertex="1">
          <mxGeometry x="250" y="1420" width="60" height="30" as="geometry" />
        </mxCell>
        <mxCell id="TS94H9t_8uxHyaIbQ6bf-70" value="&lt;b style=&quot;font-size: 22px;&quot;&gt;False&lt;/b&gt;" style="text;html=1;strokeColor=none;fillColor=none;align=center;verticalAlign=middle;whiteSpace=wrap;rounded=0;fontSize=22;" parent="1" vertex="1">
          <mxGeometry x="425" y="1580" width="60" height="30" as="geometry" />
        </mxCell>
      </root>
    </mxGraphModel>
  </diagram>
</mxfile>
